<svg xmlns="http://www.w3.org/2000/svg" viewBox="0 0 32 32">
  <rect width="32" height="32" rx="6" fill="#0a0a0a"/>
  <!-- G -->
  <path d="M5.5 11.5C6.2 9.5 7.8 8.5 9.5 8.5C11.8 8.5 13 10.2 13 12V13.5H10V12.5" stroke="#f0f0f0" stroke-width="1.5" fill="none" stroke-linecap="round"/>
  <!-- O — Wheel -->
  <circle cx="16" cy="13" r="4.5" stroke="#f0f0f0" stroke-width="1.5" fill="none"/>
  <circle cx="16" cy="13" r="1" fill="#ff2d55"/>
  <line x1="16" y1="8.5" x2="16" y2="10" stroke="#f0f0f0" stroke-width="0.6" opacity="0.5"/>
  <line x1="16" y1="16" x2="16" y2="17.5" stroke="#f0f0f0" stroke-width="0.6" opacity="0.5"/>
  <line x1="11.5" y1="13" x2="13" y2="13" stroke="#f0f0f0" stroke-width="0.6" opacity="0.5"/>
  <line x1="19" y1="13" x2="20.5" y2="13" stroke="#f0f0f0" stroke-width="0.6" opacity="0.5"/>
  <line x1="12.8" y1="9.8" x2="14" y2="11" stroke="#f0f0f0" stroke-width="0.5" opacity="0.35"/>
  <line x1="18" y1="15" x2="19.2" y2="16.2" stroke="#f0f0f0" stroke-width="0.5" opacity="0.35"/>
  <!-- H — Throne -->
  <line x1="22" y1="8" x2="22" y2="18" stroke="#f0f0f0" stroke-width="1.5" stroke-linecap="round"/>
  <line x1="27" y1="8" x2="27" y2="18" stroke="#f0f0f0" stroke-width="1.5" stroke-linecap="round"/>
  <line x1="22" y1="13" x2="27" y2="13" stroke="#ff2d55" stroke-width="1.8" stroke-linecap="round"/>
  <!-- Crown tips on H -->
  <path d="M21.5 8 L22 6.5 L22.5 8" stroke="#ff2d55" stroke-width="0.8" fill="none" stroke-linecap="round"/>
  <path d="M26.5 8 L27 6.5 L27.5 8" stroke="#ff2d55" stroke-width="0.8" fill="none" stroke-linecap="round"/>
  <!-- SY -->
  <text x="5" y="27" font-family="system-ui,sans-serif" font-size="6" font-weight="200" letter-spacing="0.8" fill="#666">S  Y</text>
</svg>
